<?xml version="1.0" encoding="UTF-8" standalone="no"?>
<!DOCTYPE svg PUBLIC "-//W3C//DTD SVG 1.1//EN" "http://www.w3.org/Graphics/SVG/1.1/DTD/svg11.dtd">
<svg version="1.1" xmlns="http://www.w3.org/2000/svg" xmlns:xlink="http://www.w3.org/1999/xlink" preserveAspectRatio="xMidYMid meet" viewBox="0 0 640 640" width="640" height="640"><defs><path d="M77.61 393.74L615.29 393.74L563.84 475.63L25.44 475.63L77.61 393.74Z" id="c1CsbLBY2t"></path><path d="M306.49 400.27L325.84 405.98L322.58 416.06C322.09 419.49 321.78 421.63 321.66 422.48C321.46 423.89 319.89 424.65 318.66 423.92C317.88 423.47 315.93 422.32 312.82 420.48C309.35 422.52 307.19 423.79 306.32 424.3C304.54 425.35 302.36 423.75 302.83 421.73C302.94 421.27 303.21 420.12 303.65 418.27C298.27 419.18 294.9 419.75 293.56 419.98C292.6 420.14 291.99 419 292.65 418.29C293.14 417.77 294.35 416.48 296.28 414.41L293.8 398.75C291.98 395.24 290.84 393.04 290.38 392.16C289.8 391.04 291.1 389.89 292.15 390.59C294.06 391.88 298.84 395.11 306.49 400.27Z" id="bvPB2LGVj"></path><path d="M379.07 400.85L377.99 417.44C381.98 420.42 384.47 422.28 385.47 423.02C386.45 423.76 385.83 425.32 384.61 425.17C383.17 424.99 379.56 424.55 373.8 423.84C373.8 426.94 373.8 428.88 373.8 429.65C373.8 430.48 372.82 430.92 372.2 430.37C371.22 429.5 368.76 427.32 364.84 423.84C360.53 425.8 357.84 427.03 356.77 427.52C355.22 428.23 353.46 427.09 353.46 425.39C353.46 424.33 353.46 421.68 353.46 417.44L349.58 403.1L379.07 400.85Z" id="f4rvuB1iYJ"></path><path d="M393.84 257.56L423.34 351.37C405.56 378.59 393.5 394.41 387.14 398.82C377.6 405.44 368.89 406.54 357.11 407.71C345.34 408.87 318.97 407.1 304.98 400.47C291 393.85 291.18 391.09 281.54 383.92C281.49 383.88 281.45 383.86 281.44 383.84C277.17 379.85 273.94 374.89 272 369.39C271.75 368.67 271.52 368.19 271.32 367.92C266.65 361.85 265.09 348.61 267.25 334.27C268.69 324.7 273.46 318.45 281.54 315.51L393.84 257.56Z" id="c2ITbXWRpV"></path><path d="M277.23 328.97L324.42 322.59C349.62 317.3 363.46 318.16 365.95 325.18C366.85 327.72 368.12 331.24 369.74 335.74C374.13 347.92 375 361.08 372.25 373.73C371.6 376.7 372.87 370.84 371.98 374.96C370.12 383.52 364.29 390.69 356.28 394.25C350.9 396.65 357.63 393.65 354.79 394.92C338.41 402.22 319.94 403.33 302.81 398.05C298.14 396.61 293.94 394.92 290.2 393C282.07 388.8 275.94 382.92 271.8 375.36C268.6 369.53 266.73 363.07 266.32 356.44C266.19 354.37 266.61 361.06 266.52 359.7C265.98 350.88 268.36 342.13 273.3 334.8C273.82 334.02 275.13 332.08 277.23 328.97Z" id="aT3yn26i"></path><path d="M326.73 400.85L347.98 378.5C355.74 382.53 360.59 385.05 362.53 386.06C364.68 387.18 364.44 390.33 362.15 391.11C349.56 395.37 341.45 398.02 337.83 399.04C334.4 400.02 331.76 400.14 329.92 399.41C328.65 398.91 327.21 399.55 326.74 400.84C326.74 400.84 326.74 400.85 326.73 400.85Z" id="i8y5AWOrB"></path><path d="M343.1 346L361.69 364.09L344.54 380.78L325.94 362.69L343.1 346Z" id="a1pSgb2Ued"></path><path d="M309.07 160.98C302.24 156 292.57 133.98 287.46 129.01C282.34 124.03 274.22 102.45 271.38 98.58C270.19 96.96 268.23 96.19 265.51 96.27C263.3 96.33 261.33 97.7 260.5 99.75C259.37 102.54 258.5 107.5 257.89 114.62C257.13 123.47 258.08 130.11 260.73 134.54L251.63 121.26C247.08 118.31 243.86 119.97 241.97 126.24C239.12 135.64 248.22 157.22 244.81 153.9C241.4 150.58 234.01 149.48 234.01 155.57C234.01 161.65 245.37 176.03 248.78 184.88C252.19 193.73 259.59 199.26 257.89 204.23C256.75 207.55 255.42 210.69 253.91 213.64C248.98 224.33 245.95 231.98 244.81 236.58C243.1 243.47 241.4 255.12 244.81 265.63C248.22 276.14 255.04 287.76 263.57 296.06C269.26 301.59 278.36 305.46 290.87 307.67C339.01 313.57 367.64 316.89 376.73 317.63C385.83 318.37 398.34 316.34 414.26 311.55L376.73 338.65C362.64 350.45 355.02 357.64 353.89 360.22C353.41 361.3 352.18 365.46 350.2 372.68C347.92 380.98 354.78 388.93 363.32 387.9C365.89 387.59 367.71 387.39 368.77 387.3C373.32 386.93 380.14 381.79 389.22 371.86C378.24 385.12 375.6 393.6 381.28 397.28C386.97 400.97 391.52 399.5 394.94 392.87C388.11 399.5 387.73 404.1 393.79 406.68C402.89 410.55 408.58 405.58 418.24 398.94C427.91 392.3 435.3 379.58 438.15 373.5C440.99 367.41 442.7 363.54 441.56 347.5C440.42 331.46 437.58 331.46 429.62 319.84C424.31 312.1 422.22 308.04 423.36 307.67C429.43 303.99 434.92 300.11 439.85 296.06C444.78 292 448.57 285.73 451.22 277.25C453.03 271.12 453.78 264.67 453.5 257.89C453.22 251.11 451.89 244.01 449.52 236.58L444.4 225.81C448.19 222.49 452.74 217.88 458.05 211.98C466.01 203.13 469.42 200.92 475.68 193.17C479.85 188.01 482.12 182.48 482.5 176.58C484.02 170.68 482.5 167.91 477.95 168.28C473.4 168.65 469.42 170.49 466.01 173.81L469.42 168.28L477.95 153.9C481.36 150.58 482.31 147.08 480.79 143.39C480.28 142.14 479.66 141.29 478.94 140.86C475.94 139.04 472.14 139.24 469.34 141.36C463.48 145.78 459.15 149.23 456.34 151.69C450.66 156.66 457.54 150.43 459.54 145.58C461.53 140.74 462.61 141.16 464.31 132.31C464.78 129.87 465.14 128.32 465.39 127.64C466.89 123.51 466.95 118.99 465.55 114.83C464.58 111.94 462.95 110.59 460.67 110.76C453.28 111.31 442.13 121.26 434.17 129.01C426.2 136.75 420.52 142.28 414.26 150.03C410.09 155.19 403.27 161.27 393.79 168.28C390 166.07 384.32 163.12 376.73 159.43C365.36 153.9 361.38 153.34 343.75 153.9C326.12 154.45 326.12 155 315.32 159.43C314.13 159.92 308.4 162.09 307.24 162.64C301.33 165.41 297.2 168.39 294.85 171.6" id="c5i3JFGrHt"></path><path d="M261.87 296.61L310.08 329.16L364.53 306.73L406.31 312.06C413.95 308.3 419.28 302.75 422.3 295.39C422.45 295.03 422.6 294.72 422.74 294.48C427.13 287.07 429.73 278.72 430.32 270.13C430.32 270.13 430.32 270.13 430.32 270.12C430.32 255.64 425.4 244.4 415.57 236.41L379.55 291.8L348.08 279.12L281.72 270.12L261.87 296.61Z" id="f3ttoxqKW"></path><path d="M401.94 256.59L418 321.46L368.5 364.49L336.13 325.37L401.94 256.59Z" id="b1SOtLeS9y"></path><path d="M336.78 283.83C337.92 286.78 342.09 289.91 349.29 293.23C378.54 295.02 396.81 296.13 404.12 296.58C409.23 296.89 414.1 294.37 416.79 290.01C417.44 288.97 419.05 286.35 421.64 282.17C423.28 279.68 424.37 276.18 424.92 271.66C425.74 264.88 426.06 264.47 424.92 255.07C423.78 245.66 421.51 241.24 415.82 231.28C413.72 227.6 409.91 225.73 407.49 223.86C403.37 220.67 400.03 218.91 392.51 218.56C380.57 218 371.47 224.09 361.23 231.28C351 238.47 344.74 247.87 339.06 255.07C335.27 259.86 333.75 265.39 334.51 271.66C334.89 276.82 335.64 280.88 336.78 283.83Z" id="a6479QnZVE"></path><path d="M305.07 339.43L323.7 362.83L305.07 380.95L284.55 360.99L305.07 339.43Z" id="a1GZolghv3"></path><path d="M350.71 307.23C352.22 296.52 354.47 288.48 357.48 283.12C359.35 279.79 362.53 276.77 367.03 274.05C371.54 271.31 376.46 269.34 381.61 268.21C382.54 268 383.89 267.84 385.68 267.71C390.94 267.32 397.33 269.4 404.86 273.94C407.08 275.75 408.47 276.88 409.03 277.33C413.67 281.11 417.13 286.15 419 291.84C419.33 292.85 417.13 286.15 417.38 286.9C419.48 293.3 418.93 300.27 415.88 306.27C415.58 306.84 416.76 304.53 415.79 306.44C414.89 308.2 413.51 309.68 411.8 310.69C407.05 313.49 401.98 315.38 396.6 316.35C392.38 317.11 388.39 318.3 382.23 318.17C374.38 317.99 366.41 316.35 361.99 316.35C356.73 316.35 352.97 314.65 350.71 311.25L350.71 307.23Z" id="cUgWbvUgc"></path><path d="M274.21 212.08C281.04 213.74 281.04 214.84 285.59 220.37C290.14 225.9 292.98 235.31 294.69 245.82C296.39 256.33 294.12 269.05 290.14 280.11C289.55 281.75 289.03 282.93 288.6 283.64C284.24 290.75 276.57 295.18 268.23 295.4C266.02 295.46 264.41 295.34 263.41 295.05C257.72 293.39 253.18 285.09 249.76 280.11C246.35 275.13 244.08 262.97 242.37 254.11C240.67 245.26 244.08 228.12 249.76 220.37C251.65 217.81 254.01 215.77 256.85 214.26C262.17 211.43 268.35 210.65 274.21 212.08C268.15 210.6 268.15 210.6 274.21 212.08Z" id="b47p1yCuca"></path><path d="M377.07 261.93C377.07 270.94 371.97 278.25 365.7 278.25C359.42 278.25 354.32 270.94 354.32 261.93C354.32 252.92 359.42 245.61 365.7 245.61C371.97 245.61 377.07 252.92 377.07 261.93Z" id="a1HALjE4dy"></path><path d="" id="adjpEivIn"></path><path d="" id="a4KdT07wa"></path><path d="M254.21 253.38C262.15 253.19 263.85 254.67 273.49 259.11C279.92 262.07 287.15 267.39 295.19 275.09C291.37 282.7 288.71 287.48 287.19 289.43C284.93 292.37 279.16 302.12 269.31 300.47C259.45 298.81 258.18 293.85 254.21 289.43C250.24 285.02 248.75 278.45 244 267.97C243.05 265.87 242.62 264.39 242.73 263.51C243.46 257.72 248.37 253.38 254.21 253.38C254.21 253.38 254.21 253.38 254.21 253.38Z" id="a1oNUsBzQJ"></path><path d="M286.86 249.11C286.86 257.94 281.76 265.11 275.48 265.11C269.21 265.11 264.11 257.94 264.11 249.11C264.11 240.28 269.21 233.11 275.48 233.11C281.76 233.11 286.86 240.28 286.86 249.11Z" id="eeVwP0hLm"></path><path d="M286.92 280.79C289.76 287.97 292.03 290.17 295.79 294.59C298.3 297.53 302.15 299.55 307.34 300.66C311.12 299.92 315.47 298.63 320.39 296.79C321.29 296.45 322.09 296.12 322.79 295.78C329.42 292.53 334.56 286.86 337.13 279.93C337.63 278.56 336.54 281.52 337.39 279.22C338.8 275.43 338 271.18 335.33 268.15C331.88 264.24 328.22 261.28 324.36 259.28C315.85 254.86 311.88 255.41 301.67 255.97C294.86 256.33 289.95 259.64 286.92 265.9C285.03 271.05 285.03 276.01 286.92 280.79Z" id="e9xHPefAh"></path><path d="M311.89 247.3C311.89 250.64 309.86 253.36 307.35 253.36C304.85 253.36 302.81 250.64 302.81 247.3C302.81 243.95 304.85 241.23 307.35 241.23C309.86 241.23 311.89 243.95 311.89 247.3Z" id="aU7jVHKJQ"></path><path d="M308.57 230.35C308.57 233.69 306.53 236.41 304.03 236.41C301.52 236.41 299.49 233.69 299.49 230.35C299.49 227 301.52 224.28 304.03 224.28C306.53 224.28 308.57 227 308.57 230.35Z" id="c2YbFPaqx"></path><path d="M299.81 213.27C301.61 216.31 301.18 219.83 298.85 221.14C296.52 222.45 293.17 221.05 291.37 218.02C289.57 214.98 290 211.46 292.33 210.15C294.66 208.84 298.01 210.24 299.81 213.27Z" id="bkLTyPCzs"></path><path d="M285.88 199.74C288.31 202.11 288.81 205.46 287 207.23C285.18 209 281.73 208.51 279.29 206.14C276.86 203.77 276.36 200.41 278.17 198.65C279.99 196.88 283.44 197.37 285.88 199.74Z" id="callYaRrs"></path><path d="M274.21 190.54C276.72 191.95 277.84 194.65 276.71 196.55C275.58 198.46 272.62 198.86 270.11 197.45C267.6 196.04 266.48 193.35 267.61 191.44C268.74 189.53 271.7 189.13 274.21 190.54Z" id="e1j5dmtPo5"></path><path d="M288.48 179.01C290.46 182.34 290.3 186.03 288.13 187.24C285.96 188.46 282.6 186.75 280.62 183.42C278.65 180.1 278.81 176.41 280.98 175.19C283.15 173.97 286.51 175.68 288.48 179.01Z" id="ce6er7R35"></path><path d="M275.7 165.34C277.73 168.77 277.45 172.64 275.06 173.98C272.68 175.32 269.09 173.62 267.05 170.19C265.02 166.77 265.3 162.89 267.69 161.55C270.08 160.21 273.67 161.91 275.7 165.34Z" id="dGbJYXxxw"></path><path d="M265.05 152.28C267.01 155.58 266.62 159.37 264.18 160.74C261.74 162.11 258.17 160.55 256.21 157.25C254.25 153.95 254.65 150.17 257.09 148.79C259.53 147.42 263.09 148.99 265.05 152.28Z" id="cEUOKwocP"></path><path d="M302.81 198.29C291.89 194.26 285.07 191.73 282.34 190.72C279.46 189.66 278.05 186.41 279.24 183.58C279.24 183.58 279.24 183.58 279.24 183.58C281.08 181.69 286.53 179.64 288.09 177.43C288.72 176.54 289.14 176.08 289.36 176.03C292.9 175.33 296.4 177.42 297.46 180.86C298.17 183.19 299.96 189 302.81 198.29Z" id="ae7Dtsvou"></path><path d="M253.57 175.96L277.84 189.16L270.77 193.85L264.35 201.58L253.57 175.96Z" id="acsfNoPiM"></path><path d="M333.73 252.9C332.53 256.12 329.88 258.14 327.82 257.41C325.76 256.68 325.06 253.48 326.27 250.26C327.47 247.05 330.12 245.03 332.18 245.76C334.23 246.49 334.93 249.69 333.73 252.9Z" id="b1JUDwEUX3"></path><path d="M342.99 240.14C340.74 242.29 337.92 242.37 336.69 240.31C335.47 238.25 336.31 234.83 338.57 232.68C340.82 230.53 343.64 230.46 344.86 232.52C346.09 234.58 345.25 237.99 342.99 240.14Z" id="c2k3S7S0B0"></path><path d="M359.44 228.75C356.29 231.32 352.27 231.7 350.45 229.6C348.64 227.5 349.73 223.71 352.87 221.14C356.02 218.58 360.05 218.2 361.86 220.29C363.67 222.39 362.58 226.18 359.44 228.75Z" id="g2K0SSK0Zt"></path><path d="M375.19 220.05C371.63 221.31 367.89 220.05 366.84 217.24C365.79 214.43 367.82 211.13 371.38 209.87C374.94 208.61 378.68 209.87 379.73 212.68C380.78 215.49 378.75 218.79 375.19 220.05Z" id="h5KGyj1rWG"></path><path d="M392.2 214.38C388.37 215.03 384.87 213.37 384.38 210.68C383.89 207.98 386.6 205.25 390.43 204.6C394.26 203.94 397.76 205.6 398.25 208.3C398.74 211 396.03 213.72 392.2 214.38Z" id="cmTVVUhhz"></path><path d="M409.78 208.99C405.93 209.65 402.45 208.15 401.99 205.66C401.54 203.16 404.29 200.59 408.13 199.94C411.98 199.28 415.46 200.77 415.92 203.27C416.37 205.77 413.62 208.33 409.78 208.99Z" id="a1Zn0n4lDK"></path><path d="M427.92 198.44C425.16 201.65 421.25 202.9 419.22 201.24C417.18 199.58 417.77 195.62 420.54 192.41C423.3 189.21 427.2 187.95 429.24 189.62C431.28 191.28 430.69 195.24 427.92 198.44Z" id="b7XUuBCP0"></path><path d="M444 186.37C441.28 189.52 437.42 190.73 435.38 189.06C433.34 187.4 433.89 183.49 436.61 180.34C439.33 177.19 443.19 175.99 445.22 177.65C447.26 179.32 446.71 183.22 444 186.37Z" id="cbvqAKvE1"></path><path d="M458.25 169.46C456.09 173.09 452.58 175.05 450.41 173.84C448.24 172.62 448.23 168.68 450.39 165.04C452.55 161.41 456.06 159.44 458.23 160.66C460.4 161.88 460.4 165.82 458.25 169.46Z" id="a1kKrjjOqX"></path><path d="M270.7 328.33C270.17 329.84 269.87 330.81 269.8 331.26C268.89 336.44 271.41 341.61 276.05 344.08C278.18 345.21 280.72 346.04 283.69 346.56C293.06 348.22 295.3 344.9 302.03 341.59C306.51 339.39 307.55 336.44 305.13 332.77L316.85 334.97C316.85 338.65 319.03 342.51 323.37 346.56C329.9 352.63 331.67 355.39 341.88 356.49C352.09 357.59 358.86 358.15 361.08 348.77C363.3 339.39 359.96 339.94 361 332.77C361.4 330 362.48 327.22 364.23 324.43C366.43 320.94 367.11 316.71 366.13 312.71C365.39 309.68 364.07 307.35 362.18 305.73C357.03 301.32 352.58 300.77 341.88 305.73C334.75 309.04 329.71 313.27 326.78 318.42L315.15 330.01L303.92 315.11C301.57 310.33 298.32 305.56 294.16 300.81C287.92 293.69 282.25 292.49 273.26 294.56C269.35 295.46 266.65 297.58 265.14 300.91C263.75 304 263.6 307.52 264.74 310.72C265.05 311.6 264.39 309.74 264.75 310.74C265.77 313.63 267.33 316.29 269.35 318.6C271.6 321.17 272.05 324.41 270.7 328.33Z" id="abqZBF6GW"></path><path d="M299.32 323.27C297.94 326.38 299.05 330.03 301.92 331.86C304.05 333.22 305.74 334.29 307.94 335.7C310.73 337.47 314.32 337.37 317 335.43C318.87 334.08 317.29 335.22 318.47 334.37C323.23 330.93 325.43 324.95 324.02 319.25C323.87 318.61 325.31 324.46 325.05 323.4C323.92 318.82 320.46 315.18 315.95 313.81C315.95 313.81 315.95 313.81 315.95 313.81C312.57 313.81 310.45 313.81 309.61 313.81C305.89 313.81 302.52 316.01 301.02 319.41C300.2 321.27 300.15 321.38 299.32 323.27Z" id="k2MQjsBjwi"></path><path d="M413.83 322.98C409.32 322.25 402.72 323.55 394.02 326.89C385.32 330.23 373.5 339.96 358.54 356.09" id="bK3fBAkB4"></path><path d="M325 398.49C314.68 399.23 307.68 399.23 304.03 398.49C300.37 397.76 295.97 395.92 290.82 392.97L305.34 381.79L325 398.49Z" id="a82kLA6b"></path><path d="M267.26 361.91C268.3 367.54 269.67 370.61 271.38 371.11L284.15 360.18L269.59 341.32C267 349.41 266.22 356.28 267.26 361.91Z" id="b1XDSPJX9Y"></path><path d="M25.44 475.63L563.48 475.63L563.48 539.61L25.44 539.61L25.44 475.63Z" id="f8qvjZ7yM"></path><path d="M563.48 475.63L615.29 393.74L615.29 456.14L564.34 539.61L563.48 475.63Z" id="dKyUf4ew"></path><path d="M76.93 393.74L260.87 393.74L208.36 475.63L25.58 475.63L76.93 393.74Z" id="dKAjHzhKn"></path><path d="M25.44 475.63L209.57 475.63L209.57 539.61L25.44 539.61L25.44 475.63Z" id="h8C3hveVY6"></path><path d="M150.36 414.94C151.8 420.9 149.86 426.24 144.53 430.96C121.27 452.39 110.14 458.9 111.13 450.5C112.63 437.9 121.75 423.44 122.99 417.93C123.75 414.53 127.99 411.16 135.71 407.83C136.5 407.48 137.34 407.29 138.21 407.25C144.99 406.92 149.04 409.49 150.36 414.94Z" id="bp1qQ5eT"></path><path d="M548.2 140.32C550.25 142.09 551.53 143.19 552.04 143.63C553.94 145.27 556.38 146.14 558.89 146.08C562.23 146 564.06 144.77 564.4 142.41C564.94 138.55 564.07 135.65 561.8 133.7C565.66 132.3 569.7 130.29 573.91 127.67C578.13 125.04 580.32 122.08 580.48 118.79C579.21 112 576.55 108.27 572.5 107.61C568.44 106.95 562.28 110.49 554.02 118.24L548.2 140.32Z" id="g3FJIW8K7a"></path><path d="M545.9 140C543.28 140.48 541.64 140.78 540.98 140.9C538.52 141.36 535.97 140.88 533.83 139.56C530.97 137.79 529.98 135.79 530.86 133.56C532.28 129.95 534.45 127.87 537.38 127.34C534.72 124.17 532.21 120.37 529.85 115.95C527.49 111.53 527.05 107.85 528.53 104.92C532.96 99.68 537.09 97.81 540.93 99.3C544.77 100.79 548.36 107 551.71 117.91L545.9 140Z" id="dENvf6Gbr"></path><path d="M559.1 107.24L554.45 112.17L559.1 107.24Z" id="bfOczd7cq"></path><path d="M553.26 105.64L554.86 112.28L553.26 105.64Z" id="ezHV1c5nA"></path><path d="M553.72 127.67C551.37 136.59 548.06 143.46 546.34 142.99C544.62 142.52 545.12 134.89 547.47 125.96C549.82 117.04 553.13 110.17 554.85 110.64C556.58 111.11 556.07 118.74 553.72 127.67Z" id="b1pGI9bNMc"></path><path d="M528.66 104.58L533.01 101.1L539.59 98.85L543.77 101.7L528 110.74L528.66 104.58Z" id="a32pe1zf7x"></path><path d="M581 118.4L578.95 113.17L574.35 107.88L569.33 108.22L578.55 124.07L581 118.4Z" id="b1Hg89F7S4"></path><path d="M542.01 114.1C541.43 116.28 539.05 117.53 536.69 116.89C534.33 116.24 532.89 113.95 533.46 111.77C534.04 109.58 536.42 108.33 538.78 108.98C541.13 109.62 542.58 111.91 542.01 114.1Z" id="asq5zsOQp"></path><path d="M573.02 121.48C572.44 123.66 570.06 124.91 567.7 124.27C565.34 123.62 563.89 121.33 564.47 119.15C565.04 116.96 567.42 115.71 569.78 116.36C572.14 117 573.59 119.29 573.02 121.48Z" id="h4sXzyckc"></path><path d="M278.84 246.94C278.84 250.26 276.6 252.94 273.84 252.94C271.08 252.94 268.84 250.26 268.84 246.94C268.84 243.63 271.08 240.94 273.84 240.94C276.6 240.94 278.84 243.63 278.84 246.94Z" id="lt9fzfzpV"></path><path d="M368.84 258.94C368.84 262.26 366.6 264.94 363.84 264.94C361.08 264.94 358.84 262.26 358.84 258.94C358.84 255.63 361.08 252.94 363.84 252.94C366.6 252.94 368.84 255.63 368.84 258.94Z" id="c1teMjA1z7"></path><path d="M373.69 268.27C373.69 270.2 372.13 271.77 370.19 271.77C368.26 271.77 366.69 270.2 366.69 268.27C366.69 266.34 368.26 264.77 370.19 264.77C372.13 264.77 373.69 266.34 373.69 268.27Z" id="noSdx6koe"></path><path d="M283.09 255.22C283.09 256.87 281.75 258.22 280.09 258.22C278.43 258.22 277.09 256.87 277.09 255.22C277.09 253.56 278.43 252.22 280.09 252.22C281.75 252.22 283.09 253.56 283.09 255.22Z" id="c6xR6raZXP"></path></defs><g><g><g><use xlink:href="#c1CsbLBY2t" opacity="1" fill="#6bb956" fill-opacity="1"></use></g><g><use xlink:href="#bvPB2LGVj" opacity="1" fill="#ffd49c" fill-opacity="1"></use><g><use xlink:href="#bvPB2LGVj" opacity="1" fill-opacity="0" stroke="#d8a35d" stroke-width="3" stroke-opacity="1"></use></g></g><g><use xlink:href="#f4rvuB1iYJ" opacity="1" fill="#ffd49c" fill-opacity="1"></use><g><use xlink:href="#f4rvuB1iYJ" opacity="1" fill-opacity="0" stroke="#d8a35d" stroke-width="3" stroke-opacity="1"></use></g></g><g><use xlink:href="#c2ITbXWRpV" opacity="1" fill="#936d59" fill-opacity="1"></use><g><use xlink:href="#c2ITbXWRpV" opacity="1" fill-opacity="0" stroke="#6b3b21" stroke-width="4" stroke-opacity="1"></use></g></g><g><use xlink:href="#aT3yn26i" opacity="1" fill="#ffffff" fill-opacity="1"></use><g><use xlink:href="#aT3yn26i" opacity="1" fill-opacity="0" stroke="#c8a888" stroke-width="3" stroke-opacity="1"></use></g></g><g><use xlink:href="#i8y5AWOrB" opacity="1" fill="#e1a786" fill-opacity="1"></use><g><use xlink:href="#i8y5AWOrB" opacity="1" fill-opacity="0" stroke="#c8a888" stroke-width="4" stroke-opacity="1"></use></g></g><g><use xlink:href="#a1pSgb2Ued" opacity="1" fill="#e1a786" fill-opacity="1"></use><g><use xlink:href="#a1pSgb2Ued" opacity="1" fill-opacity="0" stroke="#c8a888" stroke-width="3" stroke-opacity="1"></use></g></g><g><use xlink:href="#c5i3JFGrHt" opacity="1" fill="#936d59" fill-opacity="1"></use><g><use xlink:href="#c5i3JFGrHt" opacity="1" fill-opacity="0" stroke="#6b3b21" stroke-width="4" stroke-opacity="1"></use></g></g><g><use xlink:href="#f3ttoxqKW" opacity="1" fill="#ffeabc" fill-opacity="1"></use><g><use xlink:href="#f3ttoxqKW" opacity="1" fill-opacity="0" stroke="#c3a665" stroke-width="2" stroke-opacity="1"></use></g></g><g><use xlink:href="#b1SOtLeS9y" opacity="1" fill="#936d59" fill-opacity="1"></use><g><use xlink:href="#b1SOtLeS9y" opacity="1" fill-opacity="0" stroke="#335140" stroke-width="0" stroke-opacity="1"></use></g></g><g><use xlink:href="#a6479QnZVE" opacity="1" fill="#ffffff" fill-opacity="1"></use><g><use xlink:href="#a6479QnZVE" opacity="1" fill-opacity="0" stroke="#c5a08f" stroke-width="3" stroke-opacity="1"></use></g></g><g><use xlink:href="#a1GZolghv3" opacity="1" fill="#e1a786" fill-opacity="1"></use><g><use xlink:href="#a1GZolghv3" opacity="1" fill-opacity="0" stroke="#c8a888" stroke-width="3" stroke-opacity="1"></use></g></g><g><use xlink:href="#cUgWbvUgc" opacity="1" fill="#f0977e" fill-opacity="1"></use><g><use xlink:href="#cUgWbvUgc" opacity="1" fill-opacity="0" stroke="#000000" stroke-width="0" stroke-opacity="1"></use></g></g><g><use xlink:href="#b47p1yCuca" opacity="1" fill="#ffffff" fill-opacity="1"></use><g><use xlink:href="#b47p1yCuca" opacity="1" fill-opacity="0" stroke="#c5a08f" stroke-width="3" stroke-opacity="1"></use></g></g><g><use xlink:href="#a1HALjE4dy" opacity="1" fill="#562c20" fill-opacity="1"></use><g><use xlink:href="#a1HALjE4dy" opacity="1" fill-opacity="0" stroke="#ffffff" stroke-width="0" stroke-opacity="1"></use></g></g><g><g><use xlink:href="#adjpEivIn" opacity="1" fill-opacity="0" stroke="#000000" stroke-width="1" stroke-opacity="1"></use></g></g><g><g><use xlink:href="#a4KdT07wa" opacity="1" fill-opacity="0" stroke="#000000" stroke-width="1" stroke-opacity="1"></use></g></g><g><use xlink:href="#a1oNUsBzQJ" opacity="1" fill="#f0977e" fill-opacity="1"></use><g><use xlink:href="#a1oNUsBzQJ" opacity="1" fill-opacity="0" stroke="#000000" stroke-width="0" stroke-opacity="1"></use></g></g><g><use xlink:href="#eeVwP0hLm" opacity="1" fill="#562c20" fill-opacity="1"></use><g><use xlink:href="#eeVwP0hLm" opacity="1" fill-opacity="0" stroke="#ffffff" stroke-width="0" stroke-opacity="1"></use></g></g><g><use xlink:href="#e9xHPefAh" opacity="1" fill="#f8db8f" fill-opacity="1"></use><g><use xlink:href="#e9xHPefAh" opacity="1" fill-opacity="0" stroke="#d7be7d" stroke-width="3" stroke-opacity="1"></use></g></g><g><use xlink:href="#aU7jVHKJQ" opacity="1" fill="#c39a7f" fill-opacity="1"></use></g><g><use xlink:href="#c2YbFPaqx" opacity="1" fill="#c39a7f" fill-opacity="1"></use></g><g><use xlink:href="#bkLTyPCzs" opacity="1" fill="#c39a7f" fill-opacity="1"></use></g><g><use xlink:href="#callYaRrs" opacity="1" fill="#c39a7f" fill-opacity="1"></use></g><g><use xlink:href="#e1j5dmtPo5" opacity="1" fill="#c39a7f" fill-opacity="1"></use></g><g><use xlink:href="#ce6er7R35" opacity="1" fill="#c39a7f" fill-opacity="1"></use></g><g><use xlink:href="#dGbJYXxxw" opacity="1" fill="#c39a7f" fill-opacity="1"></use></g><g><use xlink:href="#cEUOKwocP" opacity="1" fill="#c39a7f" fill-opacity="1"></use></g><g><use xlink:href="#ae7Dtsvou" opacity="1" fill="#936d59" fill-opacity="1"></use><g><use xlink:href="#ae7Dtsvou" opacity="1" fill-opacity="0" stroke="#936d59" stroke-width="0" stroke-opacity="1"></use></g></g><g><use xlink:href="#acsfNoPiM" opacity="1" fill="#936d59" fill-opacity="1"></use><g><use xlink:href="#acsfNoPiM" opacity="1" fill-opacity="0" stroke="#936d59" stroke-width="0" stroke-opacity="1"></use></g></g><g><use xlink:href="#b1JUDwEUX3" opacity="1" fill="#c39a7f" fill-opacity="1"></use></g><g><use xlink:href="#c2k3S7S0B0" opacity="1" fill="#c39a7f" fill-opacity="1"></use></g><g><use xlink:href="#g2K0SSK0Zt" opacity="1" fill="#c39a7f" fill-opacity="1"></use></g><g><use xlink:href="#h5KGyj1rWG" opacity="1" fill="#c39a7f" fill-opacity="1"></use></g><g><use xlink:href="#cmTVVUhhz" opacity="1" fill="#c39a7f" fill-opacity="1"></use></g><g><use xlink:href="#a1Zn0n4lDK" opacity="1" fill="#c39a7f" fill-opacity="1"></use></g><g><use xlink:href="#b7XUuBCP0" opacity="1" fill="#c39a7f" fill-opacity="1"></use></g><g><use xlink:href="#cbvqAKvE1" opacity="1" fill="#c39a7f" fill-opacity="1"></use></g><g><use xlink:href="#a1kKrjjOqX" opacity="1" fill="#c39a7f" fill-opacity="1"></use></g><g><use xlink:href="#abqZBF6GW" opacity="1" fill="#a0d2b4" fill-opacity="1"></use><g><use xlink:href="#abqZBF6GW" opacity="1" fill-opacity="0" stroke="#7f9474" stroke-width="3" stroke-opacity="1"></use></g></g><g><use xlink:href="#k2MQjsBjwi" opacity="1" fill="#a0d2b4" fill-opacity="1"></use><g><use xlink:href="#k2MQjsBjwi" opacity="1" fill-opacity="0" stroke="#7f9474" stroke-width="3" stroke-opacity="1"></use></g></g><g><g><use xlink:href="#bK3fBAkB4" opacity="1" fill-opacity="0" stroke="#6b3b21" stroke-width="3" stroke-opacity="1"></use></g></g><g><use xlink:href="#a82kLA6b" opacity="1" fill="#e1a786" fill-opacity="1"></use><g><use xlink:href="#a82kLA6b" opacity="1" fill-opacity="0" stroke="#c8a888" stroke-width="4" stroke-opacity="1"></use></g></g><g><use xlink:href="#b1XDSPJX9Y" opacity="1" fill="#e1a786" fill-opacity="1"></use><g><use xlink:href="#b1XDSPJX9Y" opacity="1" fill-opacity="0" stroke="#c8a888" stroke-width="4" stroke-opacity="1"></use></g></g><g><use xlink:href="#f8qvjZ7yM" opacity="1" fill="#d6edcf" fill-opacity="1"></use></g><g><use xlink:href="#dKyUf4ew" opacity="1" fill="#479333" fill-opacity="1"></use></g><g><use xlink:href="#dKAjHzhKn" opacity="1" fill="#a7d8e4" fill-opacity="1"></use></g><g><use xlink:href="#h8C3hveVY6" opacity="1" fill="#dbebef" fill-opacity="1"></use></g><g><use xlink:href="#bp1qQ5eT" opacity="1" fill="#0e5877" fill-opacity="1"></use><g><use xlink:href="#bp1qQ5eT" opacity="1" fill-opacity="0" stroke="#000000" stroke-width="0" stroke-opacity="1"></use></g></g><g><use xlink:href="#g3FJIW8K7a" opacity="1" fill="#f2f2f2" fill-opacity="1"></use><g><use xlink:href="#g3FJIW8K7a" opacity="1" fill-opacity="0" stroke="#1c3656" stroke-width="3" stroke-opacity="1"></use></g></g><g><use xlink:href="#dENvf6Gbr" opacity="1" fill="#f2f2f2" fill-opacity="1"></use><g><use xlink:href="#dENvf6Gbr" opacity="1" fill-opacity="0" stroke="#1c3656" stroke-width="3" stroke-opacity="1"></use></g></g><g><g><use xlink:href="#bfOczd7cq" opacity="1" fill-opacity="0" stroke="#1c3656" stroke-width="3" stroke-opacity="1"></use></g></g><g><g><use xlink:href="#ezHV1c5nA" opacity="1" fill-opacity="0" stroke="#1c3656" stroke-width="3" stroke-opacity="1"></use></g></g><g><use xlink:href="#b1pGI9bNMc" opacity="1" fill="#e4e2f3" fill-opacity="1"></use><g><use xlink:href="#b1pGI9bNMc" opacity="1" fill-opacity="0" stroke="#1c3656" stroke-width="1" stroke-opacity="1"></use></g></g><g><use xlink:href="#a32pe1zf7x" opacity="1" fill="#1c3656" fill-opacity="1"></use><g><use xlink:href="#a32pe1zf7x" opacity="1" fill-opacity="0" stroke="#1c3656" stroke-width="1" stroke-opacity="1"></use></g></g><g><use xlink:href="#b1Hg89F7S4" opacity="1" fill="#1c3656" fill-opacity="1"></use><g><use xlink:href="#b1Hg89F7S4" opacity="1" fill-opacity="0" stroke="#1c3656" stroke-width="1" stroke-opacity="1"></use></g></g><g><use xlink:href="#asq5zsOQp" opacity="1" fill="#1c3656" fill-opacity="1"></use></g><g><use xlink:href="#h4sXzyckc" opacity="1" fill="#1c3656" fill-opacity="1"></use></g><g><use xlink:href="#lt9fzfzpV" opacity="1" fill="#ffffff" fill-opacity="1"></use></g><g><use xlink:href="#c1teMjA1z7" opacity="1" fill="#ffffff" fill-opacity="1"></use></g><g><use xlink:href="#noSdx6koe" opacity="1" fill="#ffffff" fill-opacity="1"></use></g><g><use xlink:href="#c6xR6raZXP" opacity="1" fill="#ffffff" fill-opacity="1"></use></g></g></g></svg>